# Blender 3.4.1
# www.blender.org
mtllib gy22.mtl
o Cylinder.006
v 0.000000 -3.000000 -18.500000
v 0.000000 3.000000 -18.500000
v 3.609171 -3.000000 -18.144527
v 3.609171 3.000000 -18.144527
v 7.079644 -3.000000 -17.091770
v 7.079644 3.000000 -17.091770
v 10.278049 -3.000000 -15.382188
v 10.278049 3.000000 -15.382188
v 13.081475 -3.000000 -13.081475
v 13.081475 3.000000 -13.081475
v 15.382188 -3.000000 -10.278049
v 15.382188 3.000000 -10.278049
v 17.091770 -3.000000 -7.079644
v 17.091770 3.000000 -7.079644
v 18.144527 -3.000000 -3.609171
v 18.144527 3.000000 -3.609171
v 18.500000 -3.000000 0.000000
v 18.500000 3.000000 0.000000
v 18.144527 -3.000000 3.609171
v 18.144527 3.000000 3.609171
v 17.091770 -3.000000 7.079644
v 17.091770 3.000000 7.079644
v 15.382188 -3.000000 10.278049
v 15.382188 3.000000 10.278049
v 13.081475 -3.000000 13.081475
v 13.081475 3.000000 13.081475
v 10.278049 -3.000000 15.382188
v 10.278049 3.000000 15.382188
v 7.079644 -3.000000 17.091770
v 7.079644 3.000000 17.091770
v 3.609171 -3.000000 18.144527
v 3.609171 3.000000 18.144527
v 0.000000 -3.000000 18.500000
v 0.000000 3.000000 18.500000
v -3.609171 -3.000000 18.144527
v -3.609171 3.000000 18.144527
v -7.079644 -3.000000 17.091770
v -7.079644 3.000000 17.091770
v -10.278049 -3.000000 15.382188
v -10.278049 3.000000 15.382188
v -13.081475 -3.000000 13.081475
v -13.081475 3.000000 13.081475
v -15.382188 -3.000000 10.278049
v -15.382188 3.000000 10.278049
v -17.091770 -3.000000 7.079644
v -17.091770 3.000000 7.079644
v -18.144527 -3.000000 3.609171
v -18.144527 3.000000 3.609171
v -18.500000 -3.000000 0.000000
v -18.500000 3.000000 0.000000
v -18.144527 -3.000000 -3.609171
v -18.144527 3.000000 -3.609171
v -17.091770 -3.000000 -7.079644
v -17.091770 3.000000 -7.079644
v -15.382188 -3.000000 -10.278049
v -15.382188 3.000000 -10.278049
v -13.081475 -3.000000 -13.081475
v -13.081475 3.000000 -13.081475
v -10.278049 -3.000000 -15.382188
v -10.278049 3.000000 -15.382188
v -7.079644 -3.000000 -17.091770
v -7.079644 3.000000 -17.091770
v -3.609171 -3.000000 -18.144527
v -3.609171 3.000000 -18.144527
vn -0.0000 -0.9855 -0.1696
vn -0.0000 0.9855 -0.1696
vn 0.0331 0.9855 -0.1664
vn 0.0331 -0.9855 -0.1664
vn 0.0649 0.9855 -0.1567
vn 0.0649 -0.9855 -0.1567
vn 0.0942 0.9855 -0.1411
vn 0.0942 -0.9855 -0.1411
vn 0.1200 0.9855 -0.1200
vn 0.1200 -0.9855 -0.1200
vn 0.1411 0.9855 -0.0942
vn 0.1411 -0.9855 -0.0942
vn 0.1567 0.9855 -0.0649
vn 0.1567 -0.9855 -0.0649
vn 0.1664 0.9855 -0.0331
vn 0.1664 -0.9855 -0.0331
vn 0.1696 0.9855 -0.0000
vn 0.1696 -0.9855 -0.0000
vn 0.1664 0.9855 0.0331
vn 0.1664 -0.9855 0.0331
vn 0.1567 0.9855 0.0649
vn 0.1567 -0.9855 0.0649
vn 0.1411 0.9855 0.0942
vn 0.1411 -0.9855 0.0942
vn 0.1200 0.9855 0.1200
vn 0.1200 -0.9855 0.1200
vn 0.0942 0.9855 0.1411
vn 0.0942 -0.9855 0.1411
vn 0.0649 0.9855 0.1567
vn 0.0649 -0.9855 0.1567
vn 0.0331 0.9855 0.1664
vn 0.0331 -0.9855 0.1664
vn -0.0000 0.9855 0.1696
vn -0.0000 -0.9855 0.1696
vn -0.0331 0.9855 0.1664
vn -0.0331 -0.9855 0.1664
vn -0.0649 0.9855 0.1567
vn -0.0649 -0.9855 0.1567
vn -0.0942 0.9855 0.1411
vn -0.0942 -0.9855 0.1411
vn -0.1200 0.9855 0.1200
vn -0.1200 -0.9855 0.1200
vn -0.1411 0.9855 0.0942
vn -0.1411 -0.9855 0.0942
vn -0.1567 0.9855 0.0649
vn -0.1567 -0.9855 0.0649
vn -0.1664 0.9855 0.0331
vn -0.1664 -0.9855 0.0331
vn -0.1696 0.9855 -0.0000
vn -0.1696 -0.9855 -0.0000
vn -0.1664 0.9855 -0.0331
vn -0.1664 -0.9855 -0.0331
vn -0.1567 0.9855 -0.0649
vn -0.1567 -0.9855 -0.0649
vn -0.1411 0.9855 -0.0942
vn -0.1411 -0.9855 -0.0942
vn -0.1200 0.9855 -0.1200
vn -0.1200 -0.9855 -0.1200
vn -0.0942 0.9855 -0.1411
vn -0.0942 -0.9855 -0.1411
vn -0.0649 0.9855 -0.1567
vn -0.0649 -0.9855 -0.1567
vn -0.0331 0.9855 -0.1664
vn -0.0331 -0.9855 -0.1664
vt 1.000000 0.500000
vt 0.000000 0.500000
vt 0.750000 0.490000
vt 1.000000 1.000000
vt 0.250000 0.490000
vt 0.000000 1.000000
vt 0.968750 0.500000
vt 0.796822 0.485388
vt 0.968750 1.000000
vt 0.296822 0.485388
vt 0.937500 0.500000
vt 0.841844 0.471731
vt 0.937500 1.000000
vt 0.341844 0.471731
vt 0.906250 0.500000
vt 0.883337 0.449553
vt 0.906250 1.000000
vt 0.383337 0.449553
vt 0.875000 0.500000
vt 0.919706 0.419706
vt 0.875000 1.000000
vt 0.419706 0.419706
vt 0.843750 0.500000
vt 0.949553 0.383337
vt 0.843750 1.000000
vt 0.449553 0.383337
vt 0.812500 0.500000
vt 0.971731 0.341844
vt 0.812500 1.000000
vt 0.471731 0.341844
vt 0.781250 0.500000
vt 0.985388 0.296822
vt 0.781250 1.000000
vt 0.485388 0.296822
vt 0.750000 0.500000
vt 0.990000 0.250000
vt 0.750000 1.000000
vt 0.490000 0.250000
vt 0.718750 0.500000
vt 0.985388 0.203178
vt 0.718750 1.000000
vt 0.485388 0.203178
vt 0.687500 0.500000
vt 0.971731 0.158156
vt 0.687500 1.000000
vt 0.471731 0.158156
vt 0.656250 0.500000
vt 0.949553 0.116663
vt 0.656250 1.000000
vt 0.449553 0.116663
vt 0.625000 0.500000
vt 0.919706 0.080294
vt 0.625000 1.000000
vt 0.419706 0.080294
vt 0.593750 0.500000
vt 0.883337 0.050447
vt 0.593750 1.000000
vt 0.383337 0.050447
vt 0.562500 0.500000
vt 0.841844 0.028269
vt 0.562500 1.000000
vt 0.341844 0.028269
vt 0.531250 0.500000
vt 0.796822 0.014612
vt 0.531250 1.000000
vt 0.296822 0.014612
vt 0.500000 0.500000
vt 0.750000 0.010000
vt 0.500000 1.000000
vt 0.250000 0.010000
vt 0.468750 0.500000
vt 0.703178 0.014612
vt 0.468750 1.000000
vt 0.203178 0.014612
vt 0.437500 0.500000
vt 0.658156 0.028269
vt 0.437500 1.000000
vt 0.158156 0.028269
vt 0.406250 0.500000
vt 0.616663 0.050447
vt 0.406250 1.000000
vt 0.116663 0.050447
vt 0.375000 0.500000
vt 0.580294 0.080294
vt 0.375000 1.000000
vt 0.080294 0.080294
vt 0.343750 0.500000
vt 0.550447 0.116663
vt 0.343750 1.000000
vt 0.050447 0.116663
vt 0.312500 0.500000
vt 0.528269 0.158156
vt 0.312500 1.000000
vt 0.028269 0.158156
vt 0.281250 0.500000
vt 0.514612 0.203178
vt 0.281250 1.000000
vt 0.014612 0.203178
vt 0.250000 0.500000
vt 0.510000 0.250000
vt 0.250000 1.000000
vt 0.010000 0.250000
vt 0.218750 0.500000
vt 0.514612 0.296822
vt 0.218750 1.000000
vt 0.014612 0.296822
vt 0.187500 0.500000
vt 0.528269 0.341844
vt 0.187500 1.000000
vt 0.028269 0.341844
vt 0.156250 0.500000
vt 0.550447 0.383337
vt 0.156250 1.000000
vt 0.050447 0.383337
vt 0.125000 0.500000
vt 0.580294 0.419706
vt 0.125000 1.000000
vt 0.080294 0.419706
vt 0.093750 0.500000
vt 0.616663 0.449553
vt 0.093750 1.000000
vt 0.116663 0.449553
vt 0.062500 0.500000
vt 0.658156 0.471731
vt 0.158156 0.471731
vt 0.062500 1.000000
vt 0.031250 0.500000
vt 0.703178 0.485388
vt 0.203178 0.485388
vt 0.031250 1.000000
s 1
usemtl Material.004
f 1/1/1 2/4/2 4/9/3 3/7/4
f 3/7/4 4/9/3 6/13/5 5/11/6
f 5/11/6 6/13/5 8/17/7 7/15/8
f 7/15/8 8/17/7 10/21/9 9/19/10
f 9/19/10 10/21/9 12/25/11 11/23/12
f 11/23/12 12/25/11 14/29/13 13/27/14
f 13/27/14 14/29/13 16/33/15 15/31/16
f 15/31/16 16/33/15 18/37/17 17/35/18
f 17/35/18 18/37/17 20/41/19 19/39/20
f 19/39/20 20/41/19 22/45/21 21/43/22
f 21/43/22 22/45/21 24/49/23 23/47/24
f 23/47/24 24/49/23 26/53/25 25/51/26
f 25/51/26 26/53/25 28/57/27 27/55/28
f 27/55/28 28/57/27 30/61/29 29/59/30
f 29/59/30 30/61/29 32/65/31 31/63/32
f 31/63/32 32/65/31 34/69/33 33/67/34
f 33/67/34 34/69/33 36/73/35 35/71/36
f 35/71/36 36/73/35 38/77/37 37/75/38
f 37/75/38 38/77/37 40/81/39 39/79/40
f 39/79/40 40/81/39 42/85/41 41/83/42
f 41/83/42 42/85/41 44/89/43 43/87/44
f 43/87/44 44/89/43 46/93/45 45/91/46
f 45/91/46 46/93/45 48/97/47 47/95/48
f 47/95/48 48/97/47 50/101/49 49/99/50
f 49/99/50 50/101/49 52/105/51 51/103/52
f 51/103/52 52/105/51 54/109/53 53/107/54
f 53/107/54 54/109/53 56/113/55 55/111/56
f 55/111/56 56/113/55 58/117/57 57/115/58
f 57/115/58 58/117/57 60/121/59 59/119/60
f 59/119/60 60/121/59 62/126/61 61/123/62
f 4/10/3 2/5/2 64/129/63 62/125/61 60/122/59 58/118/57 56/114/55 54/110/53 52/106/51 50/102/49 48/98/47 46/94/45 44/90/43 42/86/41 40/82/39 38/78/37 36/74/35 34/70/33 32/66/31 30/62/29 28/58/27 26/54/25 24/50/23 22/46/21 20/42/19 18/38/17 16/34/15 14/30/13 12/26/11 10/22/9 8/18/7 6/14/5
f 61/123/62 62/126/61 64/130/63 63/127/64
f 63/127/64 64/130/63 2/6/2 1/2/1
f 1/3/1 3/8/4 5/12/6 7/16/8 9/20/10 11/24/12 13/28/14 15/32/16 17/36/18 19/40/20 21/44/22 23/48/24 25/52/26 27/56/28 29/60/30 31/64/32 33/68/34 35/72/36 37/76/38 39/80/40 41/84/42 43/88/44 45/92/46 47/96/48 49/100/50 51/104/52 53/108/54 55/112/56 57/116/58 59/120/60 61/124/62 63/128/64
o Cylinder.007
v 0.000000 -19.500000 -2.000000
v 0.000000 19.500000 -2.000000
v 0.390181 -19.500000 -1.961571
v 0.390181 19.500000 -1.961571
v 0.765367 -19.500000 -1.847759
v 0.765367 19.500000 -1.847759
v 1.111140 -19.500000 -1.662939
v 1.111140 19.500000 -1.662939
v 1.414214 -19.500000 -1.414214
v 1.414214 19.500000 -1.414214
v 1.662939 -19.500000 -1.111140
v 1.662939 19.500000 -1.111140
v 1.847759 -19.500000 -0.765367
v 1.847759 19.500000 -0.765367
v 1.961571 -19.500000 -0.390181
v 1.961571 19.500000 -0.390181
v 2.000000 -19.500000 0.000000
v 2.000000 19.500000 0.000000
v 1.961571 -19.500000 0.390181
v 1.961571 19.500000 0.390181
v 1.847759 -19.500000 0.765367
v 1.847759 19.500000 0.765367
v 1.662939 -19.500000 1.111140
v 1.662939 19.500000 1.111140
v 1.414214 -19.500000 1.414214
v 1.414214 19.500000 1.414214
v 1.111140 -19.500000 1.662939
v 1.111140 19.500000 1.662939
v 0.765367 -19.500000 1.847759
v 0.765367 19.500000 1.847759
v 0.390181 -19.500000 1.961571
v 0.390181 19.500000 1.961571
v 0.000000 -19.500000 2.000000
v 0.000000 19.500000 2.000000
v -0.390181 -19.500000 1.961571
v -0.390181 19.500000 1.961571
v -0.765367 -19.500000 1.847759
v -0.765367 19.500000 1.847759
v -1.111140 -19.500000 1.662939
v -1.111140 19.500000 1.662939
v -1.414214 -19.500000 1.414214
v -1.414214 19.500000 1.414214
v -1.662939 -19.500000 1.111140
v -1.662939 19.500000 1.111140
v -1.847759 -19.500000 0.765367
v -1.847759 19.500000 0.765367
v -1.961571 -19.500000 0.390181
v -1.961571 19.500000 0.390181
v -2.000000 -19.500000 0.000000
v -2.000000 19.500000 0.000000
v -1.961571 -19.500000 -0.390181
v -1.961571 19.500000 -0.390181
v -1.847759 -19.500000 -0.765367
v -1.847759 19.500000 -0.765367
v -1.662939 -19.500000 -1.111140
v -1.662939 19.500000 -1.111140
v -1.414214 -19.500000 -1.414214
v -1.414214 19.500000 -1.414214
v -1.111140 -19.500000 -1.662939
v -1.111140 19.500000 -1.662939
v -0.765367 -19.500000 -1.847759
v -0.765367 19.500000 -1.847759
v -0.390181 -19.500000 -1.961571
v -0.390181 19.500000 -1.961571
vn -0.0000 -0.0962 -0.9954
vn -0.0000 0.0962 -0.9954
vn 0.1942 0.0962 -0.9762
vn 0.1942 -0.0962 -0.9762
vn 0.3809 0.0962 -0.9196
vn 0.3809 -0.0962 -0.9196
vn 0.5530 0.0962 -0.8276
vn 0.5530 -0.0962 -0.8276
vn 0.7038 0.0962 -0.7038
vn 0.7038 -0.0962 -0.7038
vn 0.8276 0.0962 -0.5530
vn 0.8276 -0.0962 -0.5530
vn 0.9196 0.0962 -0.3809
vn 0.9196 -0.0962 -0.3809
vn 0.9762 0.0962 -0.1942
vn 0.9762 -0.0962 -0.1942
vn 0.9954 0.0962 -0.0000
vn 0.9954 -0.0962 -0.0000
vn 0.9762 0.0962 0.1942
vn 0.9762 -0.0962 0.1942
vn 0.9196 0.0962 0.3809
vn 0.9196 -0.0962 0.3809
vn 0.8276 0.0962 0.5530
vn 0.8276 -0.0962 0.5530
vn 0.7038 0.0962 0.7038
vn 0.7038 -0.0962 0.7038
vn 0.5530 0.0962 0.8276
vn 0.5530 -0.0962 0.8276
vn 0.3809 0.0962 0.9196
vn 0.3809 -0.0962 0.9196
vn 0.1942 0.0962 0.9762
vn 0.1942 -0.0962 0.9762
vn -0.0000 0.0962 0.9954
vn -0.0000 -0.0962 0.9954
vn -0.1942 0.0962 0.9762
vn -0.1942 -0.0962 0.9762
vn -0.3809 0.0962 0.9196
vn -0.3809 -0.0962 0.9196
vn -0.5530 0.0962 0.8276
vn -0.5530 -0.0962 0.8276
vn -0.7038 0.0962 0.7038
vn -0.7038 -0.0962 0.7038
vn -0.8276 0.0962 0.5530
vn -0.8276 -0.0962 0.5530
vn -0.9196 0.0962 0.3809
vn -0.9196 -0.0962 0.3809
vn -0.9762 0.0962 0.1942
vn -0.9762 -0.0962 0.1942
vn -0.9954 0.0962 -0.0000
vn -0.9954 -0.0962 -0.0000
vn -0.9762 0.0962 -0.1942
vn -0.9762 -0.0962 -0.1942
vn -0.9196 0.0962 -0.3809
vn -0.9196 -0.0962 -0.3809
vn -0.8276 0.0962 -0.5530
vn -0.8276 -0.0962 -0.5530
vn -0.7038 0.0962 -0.7038
vn -0.7038 -0.0962 -0.7038
vn -0.5530 0.0962 -0.8276
vn -0.5530 -0.0962 -0.8276
vn -0.3809 0.0962 -0.9196
vn -0.3809 -0.0962 -0.9196
vn -0.1942 0.0962 -0.9762
vn -0.1942 -0.0962 -0.9762
vt 1.000000 0.500000
vt 0.000000 0.500000
vt 0.750000 0.490000
vt 1.000000 1.000000
vt 0.250000 0.490000
vt 0.000000 1.000000
vt 0.968750 0.500000
vt 0.796822 0.485388
vt 0.968750 1.000000
vt 0.296822 0.485388
vt 0.937500 0.500000
vt 0.841844 0.471731
vt 0.937500 1.000000
vt 0.341844 0.471731
vt 0.906250 0.500000
vt 0.883337 0.449553
vt 0.906250 1.000000
vt 0.383337 0.449553
vt 0.875000 0.500000
vt 0.919706 0.419706
vt 0.875000 1.000000
vt 0.419706 0.419706
vt 0.843750 0.500000
vt 0.949553 0.383337
vt 0.843750 1.000000
vt 0.449553 0.383337
vt 0.812500 0.500000
vt 0.971731 0.341844
vt 0.812500 1.000000
vt 0.471731 0.341844
vt 0.781250 0.500000
vt 0.985388 0.296822
vt 0.781250 1.000000
vt 0.485388 0.296822
vt 0.750000 0.500000
vt 0.990000 0.250000
vt 0.750000 1.000000
vt 0.490000 0.250000
vt 0.718750 0.500000
vt 0.985388 0.203178
vt 0.718750 1.000000
vt 0.485388 0.203178
vt 0.687500 0.500000
vt 0.971731 0.158156
vt 0.687500 1.000000
vt 0.471731 0.158156
vt 0.656250 0.500000
vt 0.949553 0.116663
vt 0.656250 1.000000
vt 0.449553 0.116663
vt 0.625000 0.500000
vt 0.919706 0.080294
vt 0.625000 1.000000
vt 0.419706 0.080294
vt 0.593750 0.500000
vt 0.883337 0.050447
vt 0.593750 1.000000
vt 0.383337 0.050447
vt 0.562500 0.500000
vt 0.841844 0.028269
vt 0.562500 1.000000
vt 0.341844 0.028269
vt 0.531250 0.500000
vt 0.796822 0.014612
vt 0.531250 1.000000
vt 0.296822 0.014612
vt 0.500000 0.500000
vt 0.750000 0.010000
vt 0.500000 1.000000
vt 0.250000 0.010000
vt 0.468750 0.500000
vt 0.703178 0.014612
vt 0.468750 1.000000
vt 0.203178 0.014612
vt 0.437500 0.500000
vt 0.658156 0.028269
vt 0.437500 1.000000
vt 0.158156 0.028269
vt 0.406250 0.500000
vt 0.616663 0.050447
vt 0.406250 1.000000
vt 0.116663 0.050447
vt 0.375000 0.500000
vt 0.580294 0.080294
vt 0.375000 1.000000
vt 0.080294 0.080294
vt 0.343750 0.500000
vt 0.550447 0.116663
vt 0.343750 1.000000
vt 0.050447 0.116663
vt 0.312500 0.500000
vt 0.528269 0.158156
vt 0.312500 1.000000
vt 0.028269 0.158156
vt 0.281250 0.500000
vt 0.514612 0.203178
vt 0.281250 1.000000
vt 0.014612 0.203178
vt 0.250000 0.500000
vt 0.510000 0.250000
vt 0.250000 1.000000
vt 0.010000 0.250000
vt 0.218750 0.500000
vt 0.514612 0.296822
vt 0.218750 1.000000
vt 0.014612 0.296822
vt 0.187500 0.500000
vt 0.528269 0.341844
vt 0.187500 1.000000
vt 0.028269 0.341844
vt 0.156250 0.500000
vt 0.550447 0.383337
vt 0.156250 1.000000
vt 0.050447 0.383337
vt 0.125000 0.500000
vt 0.580294 0.419706
vt 0.125000 1.000000
vt 0.080294 0.419706
vt 0.093750 0.500000
vt 0.616663 0.449553
vt 0.093750 1.000000
vt 0.116663 0.449553
vt 0.062500 0.500000
vt 0.658156 0.471731
vt 0.158156 0.471731
vt 0.062500 1.000000
vt 0.031250 0.500000
vt 0.703178 0.485388
vt 0.203178 0.485388
vt 0.031250 1.000000
s 1
usemtl Material.003
f 65/131/65 66/134/66 68/139/67 67/137/68
f 67/137/68 68/139/67 70/143/69 69/141/70
f 69/141/70 70/143/69 72/147/71 71/145/72
f 71/145/72 72/147/71 74/151/73 73/149/74
f 73/149/74 74/151/73 76/155/75 75/153/76
f 75/153/76 76/155/75 78/159/77 77/157/78
f 77/157/78 78/159/77 80/163/79 79/161/80
f 79/161/80 80/163/79 82/167/81 81/165/82
f 81/165/82 82/167/81 84/171/83 83/169/84
f 83/169/84 84/171/83 86/175/85 85/173/86
f 85/173/86 86/175/85 88/179/87 87/177/88
f 87/177/88 88/179/87 90/183/89 89/181/90
f 89/181/90 90/183/89 92/187/91 91/185/92
f 91/185/92 92/187/91 94/191/93 93/189/94
f 93/189/94 94/191/93 96/195/95 95/193/96
f 95/193/96 96/195/95 98/199/97 97/197/98
f 97/197/98 98/199/97 100/203/99 99/201/100
f 99/201/100 100/203/99 102/207/101 101/205/102
f 101/205/102 102/207/101 104/211/103 103/209/104
f 103/209/104 104/211/103 106/215/105 105/213/106
f 105/213/106 106/215/105 108/219/107 107/217/108
f 107/217/108 108/219/107 110/223/109 109/221/110
f 109/221/110 110/223/109 112/227/111 111/225/112
f 111/225/112 112/227/111 114/231/113 113/229/114
f 113/229/114 114/231/113 116/235/115 115/233/116
f 115/233/116 116/235/115 118/239/117 117/237/118
f 117/237/118 118/239/117 120/243/119 119/241/120
f 119/241/120 120/243/119 122/247/121 121/245/122
f 121/245/122 122/247/121 124/251/123 123/249/124
f 123/249/124 124/251/123 126/256/125 125/253/126
f 68/140/67 66/135/66 128/259/127 126/255/125 124/252/123 122/248/121 120/244/119 118/240/117 116/236/115 114/232/113 112/228/111 110/224/109 108/220/107 106/216/105 104/212/103 102/208/101 100/204/99 98/200/97 96/196/95 94/192/93 92/188/91 90/184/89 88/180/87 86/176/85 84/172/83 82/168/81 80/164/79 78/160/77 76/156/75 74/152/73 72/148/71 70/144/69
f 125/253/126 126/256/125 128/260/127 127/257/128
f 127/257/128 128/260/127 66/136/66 65/132/65
f 65/133/65 67/138/68 69/142/70 71/146/72 73/150/74 75/154/76 77/158/78 79/162/80 81/166/82 83/170/84 85/174/86 87/178/88 89/182/90 91/186/92 93/190/94 95/194/96 97/198/98 99/202/100 101/206/102 103/210/104 105/214/106 107/218/108 109/222/110 111/226/112 113/230/114 115/234/116 117/238/118 119/242/120 121/246/122 123/250/124 125/254/126 127/258/128
o Cube
v -17.000000 -3.100000 0.500000
v -17.000000 -2.900000 0.500000
v -17.000000 -3.100000 -0.500000
v -17.000000 -2.900000 -0.500000
v -3.000000 -3.100000 0.500000
v -3.000000 -2.900000 0.500000
v -3.000000 -3.100000 -0.500000
v -3.000000 -2.900000 -0.500000
vn -1.0000 -0.0000 -0.0000
vn -0.0000 -0.0000 -1.0000
vn 1.0000 -0.0000 -0.0000
vn -0.0000 -0.0000 1.0000
vn -0.0000 -1.0000 -0.0000
vn -0.0000 1.0000 -0.0000
vt 0.375000 0.000000
vt 0.375000 1.000000
vt 0.125000 0.750000
vt 0.625000 0.000000
vt 0.625000 1.000000
vt 0.875000 0.750000
vt 0.375000 0.250000
vt 0.125000 0.500000
vt 0.625000 0.250000
vt 0.875000 0.500000
vt 0.375000 0.750000
vt 0.625000 0.750000
vt 0.375000 0.500000
vt 0.625000 0.500000
s 0
usemtl Material.002
f 129/261/129 130/264/129 132/269/129 131/267/129
f 131/267/130 132/269/130 136/274/130 135/273/130
f 135/273/131 136/274/131 134/272/131 133/271/131
f 133/271/132 134/272/132 130/265/132 129/262/132
f 131/268/133 135/273/133 133/271/133 129/263/133
f 136/274/134 132/270/134 130/266/134 134/272/134
